# Blender v3.1.2 OBJ File: 'Low poly bedroom.blend'
# www.blender.org
mtllib Picture_3.mtl
o Picture_3_Cube.029
v -0.388188 -0.350053 0.020732
v -0.388188 -0.347082 0.058542
v -0.420013 -0.347082 0.020732
v -0.388188 0.347082 0.058542
v -0.388188 0.350053 0.020732
v -0.420013 0.347082 0.020732
v -0.388188 -0.350053 -0.020732
v -0.420013 -0.347082 -0.020732
v -0.415543 -0.346759 -0.058542
v -0.388188 0.350053 -0.020732
v -0.415543 0.346759 -0.058542
v -0.420013 0.347082 -0.020732
v 0.388188 -0.350053 0.020732
v 0.420013 -0.347082 0.020732
v 0.388188 -0.347082 0.058542
v 0.388188 0.350053 0.020732
v 0.388188 0.347082 0.058542
v 0.420013 0.347082 0.020732
v 0.415543 -0.346759 -0.058542
v 0.420013 -0.347082 -0.020732
v 0.388188 -0.350053 -0.020732
v 0.388188 0.350053 -0.020732
v 0.420013 0.347082 -0.020732
v 0.415543 0.346759 -0.058542
v -0.312314 -0.267711 -0.020732
v -0.280489 -0.270682 -0.020732
v -0.316784 -0.273976 -0.058542
v -0.312314 0.267711 -0.020732
v -0.316784 0.273976 -0.058542
v -0.280489 0.270682 -0.020732
v 0.280489 0.270682 -0.020732
v 0.316784 0.273976 -0.058542
v 0.312314 0.267711 -0.020732
v 0.280489 -0.270682 -0.020732
v 0.312314 -0.267711 -0.020732
v 0.316784 -0.273976 -0.058542
v -0.312314 0.267711 -0.020732
v -0.280489 0.270682 -0.020732
v -0.280489 0.267711 0.017077
v -0.312314 -0.267711 -0.020732
v -0.280489 -0.267711 0.017077
v -0.280489 -0.270682 -0.020732
v 0.280489 -0.270682 -0.020732
v 0.280489 -0.267711 0.017077
v 0.312314 -0.267711 -0.020732
v 0.280489 0.270682 -0.020732
v 0.312314 0.267711 -0.020732
v 0.280489 0.267711 0.017077
vt 0.376061 0.759471
vt 0.623939 0.759471
vt 0.623939 0.990529
vt 0.376061 0.990529
vt 0.625000 0.262737
vt 0.625000 0.487263
vt 0.625000 0.487263
vt 0.625000 0.262737
vt 0.625000 0.500000
vt 0.375000 0.500000
vt 0.375000 0.500000
vt 0.625000 0.500000
vt 0.634471 0.580732
vt 0.865529 0.580732
vt 0.865529 0.669268
vt 0.634471 0.669268
vt 0.376061 0.080731
vt 0.623939 0.080731
vt 0.623939 0.169269
vt 0.376061 0.169269
vt 0.375000 0.250000
vt 0.625000 0.250000
vt 0.625000 0.250000
vt 0.375000 0.250000
vt 0.376061 0.580732
vt 0.623939 0.580732
vt 0.623939 0.669269
vt 0.376061 0.669268
vt 0.376372 0.250000
vt 0.623628 0.250000
vt 0.623628 0.250000
vt 0.376372 0.250000
vt 0.623628 0.500000
vt 0.376372 0.500000
vt 0.376372 0.500000
vt 0.623628 0.500000
vt 0.375000 0.487262
vt 0.375000 0.262737
vt 0.375000 0.262737
vt 0.375000 0.487262
vt 0.134471 0.669268
vt 0.134471 0.750000
vt 0.125000 0.669268
vt 0.625000 0.990529
vt 0.623939 1.000000
vt 0.134471 0.580732
vt 0.125000 0.580732
vt 0.126330 0.500000
vt 0.625000 0.259471
vt 0.625000 0.250000
vt 0.365529 0.669268
vt 0.375000 0.669269
vt 0.365529 0.750000
vt 0.625000 0.759471
vt 0.625000 0.759471
vt 0.623939 0.750000
vt 0.373670 0.500000
vt 0.375000 0.580732
vt 0.365529 0.500000
vt 0.633471 0.500000
vt 0.623939 0.500000
vt 0.623628 0.262737
vt 0.376372 0.262737
vt 0.376372 0.487263
vt 0.623628 0.487263
vt 0.376061 0.000000
vt 0.623939 0.000000
vt 0.625000 0.080731
vt 0.625000 0.169269
vt 0.365529 0.580732
vt 0.625000 0.490529
vn 0.0000 0.0000 1.0000
vn 0.0000 -1.0000 0.0000
vn -0.0000 0.0000 -1.0000
vn 0.0000 1.0000 0.0000
vn -1.0000 0.0000 0.0000
vn 1.0000 0.0000 0.0000
vn -0.0927 -0.9926 0.0780
vn -0.0927 0.9926 0.0780
vn -0.0929 -0.9955 -0.0195
vn -0.0929 0.9955 -0.0195
vn 0.0927 -0.9926 0.0780
vn 0.0927 0.9926 0.0780
vn 0.0929 -0.9955 -0.0195
vn 0.0929 0.9955 -0.0195
vn 0.0915 0.9806 -0.1733
vn 0.0915 -0.9806 -0.1733
vn -0.0915 -0.9806 -0.1733
vn -0.0915 0.9806 -0.1733
vn 0.0927 -0.9926 -0.0780
vn 0.0927 0.9926 -0.0780
vn -0.0927 0.9926 -0.0780
vn -0.0927 -0.9926 -0.0780
vn -0.0929 -0.9957 0.0000
vn -0.7651 0.0000 0.6440
vn -0.0929 0.9957 0.0000
vn -0.9931 0.0000 -0.1174
vn 0.0000 -0.9962 -0.0868
vn 0.0000 0.9962 -0.0868
vn 0.9931 0.0000 -0.1174
vn 0.0929 -0.9957 0.0000
vn 0.0929 0.9957 0.0000
vn 0.7651 0.0000 0.6440
vn 0.0000 -0.9969 0.0783
vn 0.0000 0.9969 0.0783
vn 0.0816 0.9967 0.0000
vn -0.0917 0.9958 0.0000
vn -0.0816 -0.9967 0.0000
vn 0.0917 -0.9958 0.0000
vn 0.7651 0.0000 -0.6440
vn 0.0000 0.9969 -0.0783
vn 0.0000 -0.9969 -0.0783
vn -0.7651 0.0000 -0.6440
usemtl White
s off
f 15/1/1 17/2/1 4/3/1 2/4/1
f 30/5/2 31/6/2 46/7/2 38/8/2
f 24/9/3 19/10/3 36/11/3 32/12/3
f 22/13/4 10/14/4 5/15/4 16/16/4
f 3/17/5 6/18/5 12/19/5 8/20/5
f 9/21/3 11/22/3 29/23/3 27/24/3
f 19/10/3 9/21/3 27/24/3 36/11/3
f 20/25/6 23/26/6 18/27/6 14/28/6
f 25/29/6 28/30/6 37/31/6 40/32/6
f 11/22/3 24/9/3 32/12/3 29/23/3
f 33/33/5 35/34/5 45/35/5 47/36/5
f 34/37/4 26/38/4 42/39/4 43/40/4
f 1/41/7 2/42/7 3/43/7
f 4/3/8 5/44/8 6/45/8
f 7/46/9 8/47/9 9/48/9
f 10/49/10 11/22/10 12/50/10
f 13/51/11 14/52/11 15/53/11
f 16/54/12 17/55/12 18/56/12
f 19/57/13 20/58/13 21/59/13
f 22/60/14 23/61/14 24/9/14
f 25/29/15 26/38/15 27/24/15
f 28/30/16 29/23/16 30/5/16
f 31/6/17 32/12/17 33/33/17
f 34/37/18 35/34/18 36/11/18
f 37/31/19 38/8/19 39/62/19
f 40/32/20 41/63/20 42/39/20
f 43/40/21 44/64/21 45/35/21
f 46/7/22 47/36/22 48/65/22
f 7/46/23 1/41/23 3/43/23 8/47/23
f 2/66/24 4/67/24 6/18/24 3/17/24
f 5/68/25 10/69/25 12/19/25 6/18/25
f 11/22/26 9/21/26 8/20/26 12/19/26
f 21/70/27 7/46/27 9/48/27 19/57/27
f 10/49/28 22/71/28 24/9/28 11/22/28
f 23/26/29 20/25/29 19/10/29 24/9/29
f 13/51/30 21/70/30 20/25/30 14/28/30
f 22/13/31 16/16/31 18/27/31 23/26/31
f 17/2/32 15/1/32 14/28/32 18/27/32
f 1/41/33 13/51/33 15/53/33 2/42/33
f 16/54/34 5/44/34 4/3/34 17/2/34
f 28/30/29 25/29/29 27/24/29 29/23/29
f 36/11/28 27/24/28 26/38/28 34/37/28
f 29/23/27 32/12/27 31/6/27 30/5/27
f 32/12/26 36/11/26 35/34/26 33/33/26
f 25/29/35 40/32/35 42/39/35 26/38/35
f 45/35/36 35/34/36 34/37/36 43/40/36
f 33/33/37 47/36/37 46/7/37 31/6/37
f 37/31/38 28/30/38 30/5/38 38/8/38
f 7/46/2 21/70/2 13/51/2 1/41/2
usemtl Paint_red
f 41/63/3 39/62/3 48/65/3 44/64/3
f 39/62/39 41/63/39 40/32/39 37/31/39
f 43/40/40 42/39/40 41/63/40 44/64/40
f 38/8/41 46/7/41 48/65/41 39/62/41
f 47/36/42 45/35/42 44/64/42 48/65/42
